<?xml version="1.0" standalone="no"?>
<!DOCTYPE svg PUBLIC "-//W3C//DTD SVG 20010904//EN"
 "http://www.w3.org/TR/2001/REC-SVG-20010904/DTD/svg10.dtd">
<svg version="1.0" xmlns="http://www.w3.org/2000/svg"
 width="453.000000pt" height="511.000000pt" viewBox="0 0 453.000000 511.000000"
 preserveAspectRatio="xMidYMid meet">

<g transform="translate(0.000000,511.000000) scale(0.100000,-0.100000)"
fill="#000000" stroke="none">
<path d="M2150 5055 c-213 -34 -409 -140 -560 -301 -162 -174 -253 -390 -281
-670 l-12 -113 -383 -3 c-371 -3 -383 -4 -411 -24 -53 -40 -61 -67 -92 -315
-46 -359 -176 -1362 -216 -1659 -71 -539 -106 -832 -101 -845 15 -40 282 -80
486 -72 664 27 1297 347 1775 899 142 164 295 378 295 414 0 20 -62 88 -130
142 -36 28 -126 86 -200 128 -74 42 -145 86 -157 97 -28 25 -31 77 -5 100 14
13 211 72 522 157 36 10 173 48 305 85 132 37 278 78 325 91 47 12 166 46 264
73 188 53 229 59 259 37 27 -21 38 77 -132 -1156 -33 -239 -63 -452 -67 -474
-8 -52 -35 -76 -83 -76 -37 0 -44 6 -123 93 -46 50 -112 126 -148 167 -35 41
-72 83 -83 93 -42 37 -58 26 -210 -150 -171 -199 -391 -417 -537 -533 -424
-338 -875 -512 -1360 -527 -331 -10 -612 46 -911 183 -53 24 -99 44 -101 44
-19 0 -48 -200 -48 -332 0 -297 143 -509 385 -573 52 -13 275 -15 1853 -15
1978 0 1850 -4 1974 62 120 63 198 160 245 301 52 157 37 326 -146 1677 -29
211 -41 303 -161 1245 -71 557 -75 583 -103 613 -42 46 -49 47 -382 52 l-320
5 -6 92 c-26 362 -182 647 -452 827 -175 116 -330 165 -547 171 -87 3 -165 0
-220 -10z m330 -250 c209 -44 370 -152 484 -323 78 -119 125 -262 142 -439 l7
-73 -772 0 -771 0 0 58 c1 132 54 315 126 435 21 34 74 98 119 142 173 174
427 250 665 200z"/>
</g>
</svg>
